<?xml version="1.0" encoding="UTF-8"?>
<!DOCTYPE svg PUBLIC "-//W3C//DTD SVG 1.1//EN" "http://www.w3.org/Graphics/SVG/1.1/DTD/svg11.dtd">
<svg xmlns="http://www.w3.org/2000/svg" version="1.1" width="1280px" height="854px" style="shape-rendering:geometricPrecision; text-rendering:geometricPrecision; image-rendering:optimizeQuality; fill-rule:evenodd; clip-rule:evenodd" xmlns:xlink="http://www.w3.org/1999/xlink">
<g><path style="opacity:1" fill="#41210a" d="M 90.5,-0.5 C 90.8333,-0.5 91.1667,-0.5 91.5,-0.5C 91.8333,2.16667 92.1667,2.16667 92.5,-0.5C 460.5,-0.5 828.5,-0.5 1196.5,-0.5C 1196.41,2.5983 1196.91,2.93163 1198,0.5C 1199.19,2.04442 1199.52,3.71109 1199,5.5C 1197.75,3.11919 1197.42,3.45253 1198,6.5C 1198.67,9.16667 1199.33,9.16667 1200,6.5C 1201.19,8.04442 1201.52,9.71109 1201,11.5C 1199.75,9.11919 1199.42,9.45253 1200,12.5C 1200.67,15.1667 1201.33,15.1667 1202,12.5C 1203.99,14.6791 1203.82,16.5124 1201.5,18C 1202.08,19.3024 1202.75,20.469 1203.5,21.5C 1203.26,22.791 1203.6,23.791 1204.5,24.5C 1204.26,25.791 1204.6,26.791 1205.5,27.5C 1205.26,28.791 1205.6,29.791 1206.5,30.5C 1208.69,38.5729 1211.19,46.5729 1214,54.5C 1214.67,55.8333 1215.33,55.8333 1216,54.5C 1216.48,55.448 1216.65,56.448 1216.5,57.5C 1215.17,58.5 1215.17,59.5 1216.5,60.5C 1217.55,61.2223 1218.22,62.2223 1218.5,63.5C 1217.17,64.5 1217.17,65.5 1218.5,66.5C 1218.41,69.5983 1218.91,69.9316 1220,67.5C 1220.64,68.6086 1221.14,69.7753 1221.5,71C 1220.67,72.4651 1220.5,73.9651 1221,75.5C 1221.33,74.8333 1221.67,74.1667 1222,73.5C 1223.19,75.0444 1223.52,76.7111 1223,78.5C 1221.75,76.1192 1221.42,76.4525 1222,79.5C 1222.67,82.1667 1223.33,82.1667 1224,79.5C 1224.4,80.8721 1224.9,82.2054 1225.5,83.5C 1224.97,84.1924 1224.31,84.6924 1223.5,85C 1224.36,87.7344 1225.19,87.9011 1226,85.5C 1226.4,86.8721 1226.9,88.2054 1227.5,89.5C 1226.97,90.1924 1226.31,90.6924 1225.5,91C 1226.36,93.7344 1227.19,93.9011 1228,91.5C 1228.4,92.8721 1228.9,94.2054 1229.5,95.5C 1227.6,96.6681 1227.44,98.3348 1229,100.5C 1229.67,101.833 1230.33,101.833 1231,100.5C 1231.68,101.784 1231.52,102.951 1230.5,104C 1233.19,105.416 1233.86,107.416 1232.5,110C 1233.76,110.417 1234.42,111.25 1234.5,112.5C 1233.17,113.5 1233.17,114.5 1234.5,115.5C 1234.59,117.786 1235.26,119.786 1236.5,121.5C 1236.41,124.598 1236.91,124.932 1238,122.5C 1238.64,123.609 1239.14,124.775 1239.5,126C 1238.67,127.465 1238.5,128.965 1239,130.5C 1239.33,129.833 1239.67,129.167 1240,128.5C 1240.64,129.609 1241.14,130.775 1241.5,132C 1240.67,133.465 1240.5,134.965 1241,136.5C 1241.33,135.833 1241.67,135.167 1242,134.5C 1243.19,136.044 1243.52,137.711 1243,139.5C 1241.75,137.119 1241.42,137.453 1242,140.5C 1242.67,143.167 1243.33,143.167 1244,140.5C 1245.19,142.044 1245.52,143.711 1245,145.5C 1243.75,143.119 1243.42,143.453 1244,146.5C 1244.67,149.167 1245.33,149.167 1246,146.5C 1247.19,148.044 1247.52,149.711 1247,151.5C 1245.75,149.119 1245.42,149.453 1246,152.5C 1246.67,155.167 1247.33,155.167 1248,152.5C 1249.19,154.044 1249.52,155.711 1249,157.5C 1247.75,155.119 1247.42,155.453 1248,158.5C 1248.67,161.167 1249.33,161.167 1250,158.5C 1250.48,159.448 1250.65,160.448 1250.5,161.5C 1249.38,163.089 1249.55,164.756 1251,166.5C 1251.33,165.833 1251.67,165.167 1252,164.5C 1252.4,165.872 1252.9,167.205 1253.5,168.5C 1251.6,169.668 1251.44,171.335 1253,173.5C 1253.67,174.833 1254.33,174.833 1255,173.5C 1255.5,175.035 1255.33,176.535 1254.5,178C 1255.4,181.489 1256.74,183.989 1258.5,185.5C 1257.17,186.5 1257.17,187.5 1258.5,188.5C 1259.55,189.222 1260.22,190.222 1260.5,191.5C 1259.17,192.5 1259.17,193.5 1260.5,194.5C 1261.55,195.222 1262.22,196.222 1262.5,197.5C 1261.17,198.5 1261.17,199.5 1262.5,200.5C 1265.3,202.398 1265.96,204.898 1264.5,208C 1264.94,209.762 1265.44,209.595 1266,207.5C 1267.19,209.044 1267.52,210.711 1267,212.5C 1266.44,210.405 1265.94,210.238 1265.5,212C 1265.86,213.225 1266.36,214.391 1267,215.5C 1268.09,213.068 1268.59,213.402 1268.5,216.5C 1267.38,218.089 1267.55,219.756 1269,221.5C 1269.33,220.833 1269.67,220.167 1270,219.5C 1270.4,220.872 1270.9,222.205 1271.5,223.5C 1270.97,224.192 1270.31,224.692 1269.5,225C 1270.36,227.734 1271.19,227.901 1272,225.5C 1272.4,226.872 1272.9,228.205 1273.5,229.5C 1271.6,230.668 1271.44,232.335 1273,234.5C 1273.92,234.93 1274.75,235.264 1275.5,235.5C 1274.97,236.192 1274.31,236.692 1273.5,237C 1277.06,238.771 1278.06,241.437 1276.5,245C 1276.9,246.728 1277.57,248.228 1278.5,249.5C 1278.26,250.791 1278.6,251.791 1279.5,252.5C 1279.5,254.167 1279.5,255.833 1279.5,257.5C 1279.17,257.5 1278.83,257.5 1278.5,257.5C 852.334,256.5 426,256.167 -0.5,256.5C -0.5,255.167 -0.5,253.833 -0.5,252.5C 1.345,251.005 1.67833,249.338 0.5,247.5C 0.825741,244.689 1.65907,242.022 3,239.5C 3.66667,242.167 4.33333,242.167 5,239.5C 5.74012,238.251 5.57346,237.251 4.5,236.5C 4.57735,235.25 5.24402,234.417 6.5,234C 5.32806,232.132 5.49472,230.298 7,228.5C 7.33333,229.167 7.66667,229.833 8,230.5C 9.00864,228.975 9.50864,227.308 9.5,225.5C 10.1174,223.679 10.284,221.679 10,219.5C 10.6667,216.833 11.3333,216.833 12,219.5C 12.3742,218.584 12.8742,217.75 13.5,217C 11.1927,215.172 11.526,213.506 14.5,212C 13.4829,210.951 13.3162,209.784 14,208.5C 14.8596,205.367 16.3596,202.7 18.5,200.5C 19.8333,199.833 19.8333,199.167 18.5,198.5C 18.369,197.761 18.5357,197.094 19,196.5C 19.6543,197.696 20.1543,197.696 20.5,196.5C 19.2385,194.425 19.4052,192.425 21,190.5C 21.6667,193.167 22.3333,193.167 23,190.5C 23.7401,189.251 23.5735,188.251 22.5,187.5C 22.4199,183.513 24.0866,180.679 27.5,179C 25.1927,177.172 25.526,175.506 28.5,174C 27.3281,172.132 27.4947,170.298 29,168.5C 29.3333,169.167 29.6667,169.833 30,170.5C 31.0086,168.975 31.5086,167.308 31.5,165.5C 32.1174,163.679 32.284,161.679 32,159.5C 32.7679,156.489 34.2679,153.989 36.5,152C 35.9781,151.439 35.6448,150.772 35.5,150C 36.5232,146.378 38.1899,143.212 40.5,140.5C 41.8333,139.833 41.8333,139.167 40.5,138.5C 40.8257,135.689 41.6591,133.022 43,130.5C 43.6667,133.167 44.3333,133.167 45,130.5C 45.7401,129.251 45.5735,128.251 44.5,127.5C 44.4199,123.513 46.0866,120.679 49.5,119C 47.1927,117.172 47.526,115.506 50.5,114C 49.9781,113.439 49.6448,112.772 49.5,112C 50.4721,109.889 51.3054,107.722 52,105.5C 52.6667,106.833 53.3333,106.833 54,105.5C 53.2448,101.284 54.0782,97.2836 56.5,93.5C 57.0253,92.8076 57.6919,92.3076 58.5,92C 57.9781,91.4387 57.6448,90.772 57.5,90C 58.4721,87.8887 59.3054,85.7221 60,83.5C 60.7096,82.0267 61.8762,81.3601 63.5,81.5C 63.7373,80.209 63.404,79.209 62.5,78.5C 62.369,77.7611 62.5357,77.0944 63,76.5C 63.6543,77.6956 64.1543,77.6956 64.5,76.5C 63.2385,74.4248 63.4052,72.4248 65,70.5C 65.3333,71.1667 65.6667,71.8333 66,72.5C 67.0086,70.9751 67.5086,69.3084 67.5,67.5C 68.8333,66.5 68.8333,65.5 67.5,64.5C 67.4914,62.6916 67.9914,61.0249 69,59.5C 69.805,61.9011 70.6383,61.7344 71.5,59C 69.1927,57.1724 69.526,55.5057 72.5,54C 71.9781,53.4387 71.6448,52.772 71.5,52C 72.4721,49.8887 73.3054,47.7221 74,45.5C 74.6667,46.8333 75.3333,46.8333 76,45.5C 76.4962,43.9651 76.3295,42.4651 75.5,41C 76.4721,38.8887 77.3054,36.7221 78,34.5C 78.7096,33.0267 79.8762,32.3601 81.5,32.5C 81.5,31.5 81.5,30.5 81.5,29.5C 83.6915,26.1032 84.5248,22.4366 84,18.5C 85.3671,19.5243 86.2005,19.0243 86.5,17C 85.5412,13.6949 86.0412,10.5282 88,7.5C 89.3671,8.52433 90.2005,8.02433 90.5,6C 89.2799,3.82999 89.2799,1.66332 90.5,-0.5 Z"/></g>
<g><path style="opacity:0.006" fill="#2d0c00" d="M 1205.5,24.5 C 1205.17,24.5 1204.83,24.5 1204.5,24.5C 1204.74,23.209 1204.4,22.209 1203.5,21.5C 1203.35,20.448 1203.52,19.448 1204,18.5C 1205.13,20.3453 1205.63,22.3453 1205.5,24.5 Z"/></g>
<g><path style="opacity:0.007" fill="#220800" d="M 1205.5,24.5 C 1207.46,26.32 1207.79,28.32 1206.5,30.5C 1206.74,29.209 1206.4,28.209 1205.5,27.5C 1205.5,26.5 1205.5,25.5 1205.5,24.5 Z"/></g>
<g><path style="opacity:0.006" fill="#390f01" d="M 81.5,29.5 C 80.7784,29.9175 80.2784,30.5842 80,31.5C 79.4795,29.7111 79.8129,28.0444 81,26.5C 81.4828,27.448 81.6495,28.448 81.5,29.5 Z"/></g>
<g><path style="opacity:0.012" fill="#5d0b01" d="M 1216.5,57.5 C 1217.83,58.5 1217.83,59.5 1216.5,60.5C 1216.5,59.5 1216.5,58.5 1216.5,57.5 Z"/></g>
<g><path style="opacity:0.012" fill="#5c0b01" d="M 1218.5,63.5 C 1219.83,64.5 1219.83,65.5 1218.5,66.5C 1218.5,65.5 1218.5,64.5 1218.5,63.5 Z"/></g>
<g><path style="opacity:0.008" fill="#6a0d02" d="M 67.5,64.5 C 67.5,65.5 67.5,66.5 67.5,67.5C 67.1667,67.5 66.8333,67.5 66.5,67.5C 66.2627,66.209 66.596,65.209 67.5,64.5 Z"/></g>
<g><path style="opacity:0.012" fill="#4b0b00" d="M 66.5,67.5 C 66.631,68.2389 66.4643,68.9056 66,69.5C 65.3083,68.5632 65.475,67.8966 66.5,67.5 Z"/></g>
<g><path style="opacity:1" fill="#8d613c" d="M 209.5,75.5 C 220.157,73.6581 224.657,77.9915 223,88.5C 216.54,104.628 205.206,115.628 189,121.5C 183.534,121.007 182.2,118.341 185,113.5C 187.5,111 190,108.5 192.5,106C 197.045,102.001 201.878,99.1678 207,97.5C 210.053,94.1134 212.72,90.4467 215,86.5C 215.49,85.2068 215.657,83.8734 215.5,82.5C 210.403,82.5427 205.736,84.0427 201.5,87C 190.976,94.5579 182.143,103.725 175,114.5C 170.623,120.9 168.956,127.9 170,135.5C 170.273,137.329 171.107,138.829 172.5,140C 176.375,141.52 180.375,141.854 184.5,141C 197.318,136.004 208.818,128.838 219,119.5C 219.667,121.167 219.667,122.833 219,124.5C 208.649,136.189 196.149,144.689 181.5,150C 163.178,154.339 154.678,147.172 156,128.5C 161.3,113.195 170.467,100.695 183.5,91C 191.468,84.5216 200.135,79.355 209.5,75.5 Z"/></g>
<g><path style="opacity:0.999" fill="#8d613c" d="M 460.5,76.5 C 469.25,76.0901 477.916,76.5901 486.5,78C 487.728,81.1743 487.561,84.341 486,87.5C 480.349,90.4926 474.682,93.4926 469,96.5C 467.457,95.4228 467.457,94.0894 469,92.5C 470.771,91.6959 472.271,90.5292 473.5,89C 463.654,88.5018 454.321,90.5018 445.5,95C 443.154,96.0128 441.487,97.6794 440.5,100C 440.905,100.945 441.572,101.612 442.5,102C 451.11,104.536 459.776,106.87 468.5,109C 480.642,115.065 481.642,122.731 471.5,132C 455.238,139.824 438.238,142.158 420.5,139C 417.64,130.923 420.64,126.09 429.5,124.5C 430.167,124.667 430.833,124.833 431.5,125C 430.643,125.689 429.977,126.522 429.5,127.5C 440.775,129.147 451.775,127.981 462.5,124C 465.393,123.059 467.726,121.393 469.5,119C 468.48,116.974 466.813,115.641 464.5,115C 455.296,112.355 445.963,110.355 436.5,109C 433.943,108.315 432.109,106.815 431,104.5C 429.882,97.1227 432.048,90.956 437.5,86C 444.897,81.9302 452.564,78.7635 460.5,76.5 Z"/></g>
<g><path style="opacity:0.008" fill="#8e0001" d="M 62.5,78.5 C 62.631,79.2389 62.4643,79.9056 62,80.5C 61.3083,79.5632 61.475,78.8966 62.5,78.5 Z"/></g>
<g><path style="opacity:0.999" fill="#8d613b" d="M 287.5,82.5 C 288.833,82.5 290.167,82.5 291.5,82.5C 292.105,88.2328 290.938,93.5661 288,98.5C 281.674,106.484 275.841,114.817 270.5,123.5C 272.499,125.493 273.999,127.827 275,130.5C 278.702,127.968 282.535,125.635 286.5,123.5C 287.451,124.326 288.451,124.492 289.5,124C 295.667,120.5 300.5,115.667 304,109.5C 307.829,101.837 312.163,94.5037 317,87.5C 318.719,85.4429 320.719,83.7763 323,82.5C 324.947,83.0439 325.78,84.3772 325.5,86.5C 324.973,89.5807 324.14,92.5807 323,95.5C 316.704,104.597 310.537,113.764 304.5,123C 305.625,125.621 306.958,128.121 308.5,130.5C 311.368,128.468 314.368,126.635 317.5,125C 321.12,119.711 325.12,114.711 329.5,110C 333.746,106.628 338.579,104.794 344,104.5C 350.776,104.392 352.776,107.392 350,113.5C 344.632,119.936 337.799,123.936 329.5,125.5C 329.18,131.997 332.18,134.164 338.5,132C 342.759,130.066 346.759,127.732 350.5,125C 354.115,119.117 358.448,113.783 363.5,109C 368.967,105.176 374.967,103.842 381.5,105C 384.778,107.288 385.278,110.121 383,113.5C 377.857,119.657 371.357,123.657 363.5,125.5C 361.762,131.664 364.096,133.831 370.5,132C 376.296,129.602 381.63,126.436 386.5,122.5C 387.614,123.723 387.781,125.056 387,126.5C 381.674,132.16 375.508,136.66 368.5,140C 358.401,142.704 352.901,138.87 352,128.5C 345.077,136.881 336.243,140.715 325.5,140C 321.913,136.995 319.746,133.162 319,128.5C 316,130.833 313,133.167 310,135.5C 309.904,146.532 305.071,154.699 295.5,160C 292.634,161.457 289.634,161.79 286.5,161C 282.963,151.016 284.296,141.683 290.5,133C 289.15,131.282 287.983,129.448 287,127.5C 283.974,130.026 280.807,132.36 277.5,134.5C 276.355,148.456 269.188,157.79 256,162.5C 252.072,159.978 250.239,156.311 250.5,151.5C 251.192,144.923 253.192,138.756 256.5,133C 256.355,132.228 256.022,131.561 255.5,131C 251.542,131.755 247.542,132.755 243.5,134C 238.831,138.888 233.164,140.555 226.5,139C 217.634,128.059 218.967,118.392 230.5,110C 236.615,105.76 243.282,104.26 250.5,105.5C 250.638,108.934 251.305,112.434 252.5,116C 252.365,119.601 251.365,122.934 249.5,126C 250.5,126.667 251.5,126.667 252.5,126C 256.667,123.167 260.833,120.333 265,117.5C 272.012,105.465 279.512,93.7987 287.5,82.5 Z"/></g>
<g><path style="opacity:1" fill="#8c603b" d="M 517.5,79.5 C 519.467,79.2606 521.301,79.5939 523,80.5C 523.552,83.4192 522.885,86.0859 521,88.5C 510.696,101.303 499.863,113.637 488.5,125.5C 488.667,126.167 488.833,126.833 489,127.5C 496.269,120.896 504.102,115.063 512.5,110C 517.498,108.67 519.664,110.504 519,115.5C 514.795,119.926 511.628,124.926 509.5,130.5C 514.183,130.493 518.183,128.826 521.5,125.5C 523.174,118.323 527.174,112.823 533.5,109C 538.99,105.248 544.99,103.915 551.5,105C 553.669,106.328 554.002,107.994 552.5,110C 555.162,115.25 554.829,120.417 551.5,125.5C 553.523,126.041 555.523,125.541 557.5,124C 566.167,114.667 574.833,105.333 583.5,96C 586.289,94.3364 589.123,94.1698 592,95.5C 592.315,96.9078 591.982,98.2411 591,99.5C 586.085,103.744 581.919,108.577 578.5,114C 583.883,110.903 589.716,108.403 596,106.5C 599.071,106.738 600.571,108.404 600.5,111.5C 597.949,119.406 593.282,125.906 586.5,131C 589.257,131.584 591.923,131.25 594.5,130C 598.258,128.077 601.591,125.577 604.5,122.5C 605.631,124.074 605.798,125.741 605,127.5C 600.439,131.866 595.272,135.366 589.5,138C 581.533,138.986 573.533,139.486 565.5,139.5C 562.432,144.728 559.598,150.061 557,155.5C 555.54,158.21 553.54,158.876 551,157.5C 550.333,154.833 550.333,152.167 551,149.5C 557.028,139.283 563.195,129.116 569.5,119C 564.375,122.099 559.708,126.099 555.5,131C 552.216,132.125 548.883,133.125 545.5,134C 540.018,139.46 533.684,140.793 526.5,138C 524.873,135.246 523.373,132.412 522,129.5C 517.107,133.391 511.94,136.891 506.5,140C 499.999,140.812 497.832,137.979 500,131.5C 501.841,127.817 504.174,124.484 507,121.5C 507.667,120.833 507.667,120.167 507,119.5C 500.198,125.301 493.698,131.468 487.5,138C 486.5,138.667 485.5,138.667 484.5,138C 480.608,130.366 481.108,122.866 486,115.5C 494.531,101.801 505.031,89.8008 517.5,79.5 Z"/></g>
<g><path style="opacity:0.999" fill="#40200a" d="M 339.5,110.5 C 342.998,110.565 343.498,111.899 341,114.5C 338.029,117.567 334.529,119.4 330.5,120C 333.029,116.306 336.029,113.14 339.5,110.5 Z"/></g>
<g><path style="opacity:0.999" fill="#3e1f09" d="M 372.5,110.5 C 374.355,110.272 375.188,110.939 375,112.5C 372.124,116.752 368.29,119.252 363.5,120C 364.667,118.167 365.833,116.333 367,114.5C 369.015,113.303 370.849,111.97 372.5,110.5 Z"/></g>
<g><path style="opacity:0.012" fill="#3b0d00" d="M 1234.5,112.5 C 1235.83,113.5 1235.83,114.5 1234.5,115.5C 1234.5,114.5 1234.5,113.5 1234.5,112.5 Z"/></g>
<g><path style="opacity:0.999" fill="#3f1f09" d="M 239.5,115.5 C 240.043,115.56 240.376,115.893 240.5,116.5C 237.608,120.854 236.775,125.521 238,130.5C 235.096,132.227 231.93,132.893 228.5,132.5C 228.211,129.351 228.711,126.351 230,123.5C 232.772,120.217 235.939,117.55 239.5,115.5 Z"/></g>
<g><path style="opacity:0.997" fill="#402009" d="M 586.5,116.5 C 588.344,117.204 588.844,118.537 588,120.5C 585.618,123.427 583.118,126.261 580.5,129C 578.155,129.17 575.821,128.837 573.5,128C 576.789,122.871 581.122,119.038 586.5,116.5 Z"/></g>
<g><path style="opacity:0.999" fill="#402009" d="M 540.5,115.5 C 541.239,115.369 541.906,115.536 542.5,116C 540.107,120.494 538.94,125.327 539,130.5C 529.376,134.539 527.043,131.872 532,122.5C 534.628,119.79 537.461,117.456 540.5,115.5 Z"/></g>
<g><path style="opacity:0.012" fill="#3b0d00" d="M 1236.5,121.5 C 1236.35,120.448 1236.52,119.448 1237,118.5C 1237.74,119.749 1237.57,120.749 1236.5,121.5 Z"/></g>
<g><path style="opacity:0.012" fill="#4b0b00" d="M 44.5,127.5 C 44.631,128.239 44.4643,128.906 44,129.5C 43.3083,128.563 43.475,127.897 44.5,127.5 Z"/></g>
<g><path style="opacity:0.999" fill="#41210a" d="M 262.5,136.5 C 264.833,136.5 267.167,136.5 269.5,136.5C 269.629,143.907 266.796,149.907 261,154.5C 259.481,152.444 258.647,150.11 258.5,147.5C 259.441,143.674 260.775,140.008 262.5,136.5 Z"/></g>
<g><path style="opacity:0.999" fill="#41210b" d="M 295.5,136.5 C 297.833,136.5 300.167,136.5 302.5,136.5C 303.148,144.201 300.315,150.201 294,154.5C 291.891,148.31 292.391,142.31 295.5,136.5 Z"/></g>
<g><path style="opacity:0.008" fill="#8b0001" d="M 40.5,138.5 C 40.5,139.167 40.5,139.833 40.5,140.5C 39.1667,139.833 39.1667,139.167 40.5,138.5 Z"/></g>
<g><path style="opacity:0.012" fill="#4b0b00" d="M 1250.5,161.5 C 1251.53,161.897 1251.69,162.563 1251,163.5C 1250.54,162.906 1250.37,162.239 1250.5,161.5 Z"/></g>
<g><path style="opacity:0.012" fill="#4a0b00" d="M 31.5,165.5 C 31.1667,165.5 30.8333,165.5 30.5,165.5C 30.8333,162.833 31.1667,162.833 31.5,165.5 Z"/></g>
<g><path style="opacity:0.012" fill="#4b0b00" d="M 30.5,165.5 C 30.631,166.239 30.4643,166.906 30,167.5C 29.3083,166.563 29.475,165.897 30.5,165.5 Z"/></g>
<g><path style="opacity:0.016" fill="#2e0900" d="M 1258.5,185.5 C 1259.83,186.5 1259.83,187.5 1258.5,188.5C 1258.5,187.5 1258.5,186.5 1258.5,185.5 Z"/></g>
<g><path style="opacity:0.012" fill="#6a0000" d="M 22.5,187.5 C 22.631,188.239 22.4643,188.906 22,189.5C 21.3083,188.563 21.475,187.897 22.5,187.5 Z"/></g>
<g><path style="opacity:0.012" fill="#3b0d00" d="M 1260.5,191.5 C 1261.83,192.5 1261.83,193.5 1260.5,194.5C 1260.5,193.5 1260.5,192.5 1260.5,191.5 Z"/></g>
<g><path style="opacity:0.012" fill="#3b0d00" d="M 1262.5,197.5 C 1263.83,198.5 1263.83,199.5 1262.5,200.5C 1262.5,199.5 1262.5,198.5 1262.5,197.5 Z"/></g>
<g><path style="opacity:0.008" fill="#8b0001" d="M 18.5,198.5 C 18.5,199.167 18.5,199.833 18.5,200.5C 17.1667,199.833 17.1667,199.167 18.5,198.5 Z"/></g>
<g><path style="opacity:0.012" fill="#6b0000" d="M 1268.5,216.5 C 1269.53,216.897 1269.69,217.563 1269,218.5C 1268.54,217.906 1268.37,217.239 1268.5,216.5 Z"/></g>
<g><path style="opacity:0.012" fill="#6b5102" d="M 9.5,225.5 C 9.16667,225.5 8.83333,225.5 8.5,225.5C 8.83333,222.833 9.16667,222.833 9.5,225.5 Z"/></g>
<g><path style="opacity:0.012" fill="#7b0000" d="M 8.5,225.5 C 8.63101,226.239 8.46434,226.906 8,227.5C 7.30831,226.563 7.47498,225.897 8.5,225.5 Z"/></g>
<g><path style="opacity:0.012" fill="#7b0000" d="M 4.5,236.5 C 4.63101,237.239 4.46434,237.906 4,238.5C 3.30831,237.563 3.47498,236.897 4.5,236.5 Z"/></g>
<g><path style="opacity:0.012" fill="#540000" d="M -0.5,247.5 C -0.166667,247.5 0.166667,247.5 0.5,247.5C 0.67158,248.492 0.338246,249.158 -0.5,249.5C -0.5,248.833 -0.5,248.167 -0.5,247.5 Z"/></g>
<g><path style="opacity:0.012" fill="#2f0a00" d="M 1279.5,246.5 C 1279.5,247.5 1279.5,248.5 1279.5,249.5C 1279.17,249.5 1278.83,249.5 1278.5,249.5C 1278.26,248.209 1278.6,247.209 1279.5,246.5 Z"/></g>
<g><path style="opacity:0.971" fill="#966841" d="M -0.5,256.5 C 426,256.167 852.334,256.5 1278.5,257.5C 1278.5,258.167 1278.83,258.5 1279.5,258.5C 1279.5,258.833 1279.5,259.167 1279.5,259.5C 1278.5,298.663 1278.17,337.996 1278.5,377.5C 1277.71,376.391 1277.21,375.058 1277,373.5C 1276.5,334.835 1276.33,296.168 1276.5,257.5C 851.833,257.5 427.167,257.5 2.5,257.5C 2.66666,297.835 2.49999,338.168 2,378.5C 1.76791,379.737 1.26791,380.737 0.5,381.5C 0.801552,378.941 0.468218,376.607 -0.5,374.5C -0.5,335.167 -0.5,295.833 -0.5,256.5 Z"/></g>
<g><path style="opacity:1" fill="#8d603b" d="M 1278.5,377.5 C 1277.63,379.717 1277.3,382.05 1277.5,384.5C 1276.09,386.225 1275.59,388.225 1276,390.5C 1276.56,388.405 1277.06,388.238 1277.5,390C 1277.14,391.225 1276.64,392.391 1276,393.5C 1275.67,392.833 1275.33,392.167 1275,391.5C 1273.99,393.025 1273.49,394.692 1273.5,396.5C 1272.17,397.167 1272.17,397.833 1273.5,398.5C 1271.62,403.368 1268.95,407.701 1265.5,411.5C 1265.17,410.167 1264.83,410.167 1264.5,411.5C 1263.83,411.5 1263.5,411.833 1263.5,412.5C 1262.17,412.833 1262.17,413.167 1263.5,413.5C 1262.17,416.833 1259.83,419.167 1256.5,420.5C 1256.17,419.167 1255.83,419.167 1255.5,420.5C 1254.83,420.5 1254.5,420.833 1254.5,421.5C 1253.83,421.5 1253.5,421.833 1253.5,422.5C 1252.83,422.5 1252.5,422.833 1252.5,423.5C 1251.51,423.328 1250.84,423.662 1250.5,424.5C 1249.83,424.5 1249.5,424.833 1249.5,425.5C 1248.51,425.328 1247.84,425.662 1247.5,426.5C 1246.83,426.5 1246.5,426.833 1246.5,427.5C 1245.51,427.328 1244.84,427.662 1244.5,428.5C 1243.51,428.328 1242.84,428.662 1242.5,429.5C 1241.51,429.328 1240.84,429.662 1240.5,430.5C 1239.51,430.328 1238.84,430.662 1238.5,431.5C 1237.21,431.263 1236.21,431.596 1235.5,432.5C 1233.21,432.595 1231.21,433.262 1229.5,434.5C 1219.17,435.833 1208.83,435.833 1198.5,434.5C 1196.79,433.262 1194.79,432.595 1192.5,432.5C 1192.5,431.833 1192.17,431.5 1191.5,431.5C 1168.33,420.899 1154.5,402.899 1150,377.5C 1139.98,421.256 1112.81,439.756 1068.5,433C 1041.33,422.845 1026,403.345 1022.5,374.5C 1015.51,415.665 991.173,435.832 949.5,435C 918.682,427.849 900.516,408.682 895,377.5C 886.386,416.461 862.22,435.628 822.5,435C 791.15,428.315 772.65,409.148 767,377.5C 761.225,409.607 742.392,428.774 710.5,435C 679.299,436.477 657.133,422.977 644,394.5C 641.599,388.35 639.932,382.017 639,375.5C 631.932,416.239 607.766,436.072 566.5,435C 536.208,427.874 517.874,409.04 511.5,378.5C 502.836,417.008 478.836,435.841 439.5,435C 406.756,427.921 388.256,407.755 384,374.5C 379.379,408.626 360.212,428.792 326.5,435C 296.873,436.354 275.373,423.854 262,397.5C 259.243,390.388 257.243,383.054 256,375.5C 251.026,409.139 231.86,428.972 198.5,435C 167.648,436.154 145.815,422.654 133,394.5C 131.198,388.466 129.532,382.466 128,376.5C 122.747,408.248 104.58,427.915 73.5,435.5C 66.8333,435.5 60.1667,435.5 53.5,435.5C 48.2553,433.865 42.9219,432.198 37.5,430.5C 37.1583,429.662 36.4916,429.328 35.5,429.5C 35.5,428.833 35.1667,428.5 34.5,428.5C 31.5664,425.642 28.2331,424.142 24.5,424C 22.4006,419.842 19.2339,416.008 15,412.5C 13.3335,413.34 13.1669,412.84 14.5,411C 9.45923,408.372 6.1259,403.872 4.5,397.5C 5.83333,396.833 5.83333,396.167 4.5,395.5C 4.73731,394.209 4.40397,393.209 3.5,392.5C 3.73731,391.209 3.40397,390.209 2.5,389.5C 2.73731,388.209 2.40397,387.209 1.5,386.5C 1.76781,384.901 1.43448,383.568 0.5,382.5C 0.5,382.167 0.5,381.833 0.5,381.5C 1.26791,380.737 1.76791,379.737 2,378.5C 2.49999,338.168 2.66666,297.835 2.5,257.5C 427.167,257.5 851.833,257.5 1276.5,257.5C 1276.33,296.168 1276.5,334.835 1277,373.5C 1277.21,375.058 1277.71,376.391 1278.5,377.5 Z"/></g>
<g><path style="opacity:0.016" fill="#bd6939" d="M -0.5,382.5 C -0.166667,382.5 0.166667,382.5 0.5,382.5C 0.5,383.833 0.5,385.167 0.5,386.5C 0.166667,386.5 -0.166667,386.5 -0.5,386.5C -0.5,385.167 -0.5,383.833 -0.5,382.5 Z"/></g>
<g><path style="opacity:0.999" fill="#41210a" d="M 1191.5,431.5 C 1192.17,431.5 1192.5,431.833 1192.5,432.5C 1192.5,432.833 1192.5,433.167 1192.5,433.5C 1191.5,573.332 1191.17,713.332 1191.5,853.5C 1142.17,853.5 1092.83,853.5 1043.5,853.5C 1043.5,733.833 1043.5,614.167 1043.5,494.5C 972.5,494.5 901.5,494.5 830.5,494.5C 830.5,614.167 830.5,733.833 830.5,853.5C 578.167,853.5 325.833,853.5 73.5,853.5C 73.8329,714.666 73.4996,575.999 72.5,437.5C 72.5,437.167 72.5,436.833 72.5,436.5C 73.1667,436.5 73.5,436.167 73.5,435.5C 104.58,427.915 122.747,408.248 128,376.5C 129.532,382.466 131.198,388.466 133,394.5C 145.815,422.654 167.648,436.154 198.5,435C 231.86,428.972 251.026,409.139 256,375.5C 257.243,383.054 259.243,390.388 262,397.5C 275.373,423.854 296.873,436.354 326.5,435C 360.212,428.792 379.379,408.626 384,374.5C 388.256,407.755 406.756,427.921 439.5,435C 478.836,435.841 502.836,417.008 511.5,378.5C 517.874,409.04 536.208,427.874 566.5,435C 607.766,436.072 631.932,416.239 639,375.5C 639.932,382.017 641.599,388.35 644,394.5C 657.133,422.977 679.299,436.477 710.5,435C 742.392,428.774 761.225,409.607 767,377.5C 772.65,409.148 791.15,428.315 822.5,435C 862.22,435.628 886.386,416.461 895,377.5C 900.516,408.682 918.682,427.849 949.5,435C 991.173,435.832 1015.51,415.665 1022.5,374.5C 1026,403.345 1041.33,422.845 1068.5,433C 1112.81,439.756 1139.98,421.256 1150,377.5C 1154.5,402.899 1168.33,420.899 1191.5,431.5 Z"/></g>
<g><path style="opacity:0.004" fill="#584131" d="M 1279.5,379.5 C 1279.5,381.167 1279.5,382.833 1279.5,384.5C 1279.17,384.5 1278.83,384.5 1278.5,384.5C 1278.22,382.585 1278.55,380.919 1279.5,379.5 Z"/></g>
<g><path style="opacity:0.008" fill="#b6b176" d="M 1277.5,384.5 C 1277.83,384.5 1278.17,384.5 1278.5,384.5C 1278.17,388.5 1277.83,388.5 1277.5,384.5 Z"/></g>
<g><path style="opacity:0.008" fill="#bb8a68" d="M 0.5,386.5 C 0.833333,386.5 1.16667,386.5 1.5,386.5C 1.5,387.5 1.5,388.5 1.5,389.5C 0.596028,388.791 0.262695,387.791 0.5,386.5 Z"/></g>
<g><path style="opacity:0.012" fill="#5e5a41" d="M 1.5,389.5 C 1.83333,389.5 2.16667,389.5 2.5,389.5C 2.5,390.5 2.5,391.5 2.5,392.5C 1.59603,391.791 1.26269,390.791 1.5,389.5 Z"/></g>
<g><path style="opacity:0.012" fill="#5a5a0b" d="M 2.5,392.5 C 2.83333,392.5 3.16667,392.5 3.5,392.5C 3.5,393.5 3.5,394.5 3.5,395.5C 2.59603,394.791 2.26269,393.791 2.5,392.5 Z"/></g>
<g><path style="opacity:0.008" fill="#b19038" d="M 1274.5,396.5 C 1274.37,395.761 1274.54,395.094 1275,394.5C 1275.69,395.437 1275.53,396.103 1274.5,396.5 Z"/></g>
<g><path style="opacity:0.008" fill="#9c9c9d" d="M 3.5,395.5 C 3.83333,395.5 4.16667,395.5 4.5,395.5C 4.5,396.167 4.5,396.833 4.5,397.5C 3.66175,397.158 3.32842,396.492 3.5,395.5 Z"/></g>
<g><path style="opacity:0.004" fill="#442526" d="M 1273.5,396.5 C 1273.83,396.5 1274.17,396.5 1274.5,396.5C 1274.67,397.492 1274.34,398.158 1273.5,398.5C 1273.5,397.833 1273.5,397.167 1273.5,396.5 Z"/></g>
<g><path style="opacity:0.012" fill="#c75e69" d="M 1264.5,411.5 C 1264.83,411.5 1265.17,411.5 1265.5,411.5C 1265.31,412.17 1264.98,412.17 1264.5,411.5 Z"/></g>
<g><path style="opacity:0.012" fill="#ce6565" d="M 1263.5,412.5 C 1263.83,412.5 1264.17,412.5 1264.5,412.5C 1264.31,413.17 1263.98,413.17 1263.5,412.5 Z"/></g>
<g><path style="opacity:0.012" fill="#d06367" d="M 1255.5,420.5 C 1255.83,420.5 1256.17,420.5 1256.5,420.5C 1256.31,421.17 1255.98,421.17 1255.5,420.5 Z"/></g>
<g><path style="opacity:0.012" fill="#5f6500" d="M 1254.5,421.5 C 1254.83,421.5 1255.17,421.5 1255.5,421.5C 1255.31,422.17 1254.98,422.17 1254.5,421.5 Z"/></g>
<g><path style="opacity:0.012" fill="#5f6500" d="M 1253.5,422.5 C 1253.83,422.5 1254.17,422.5 1254.5,422.5C 1254.31,423.17 1253.98,423.17 1253.5,422.5 Z"/></g>
<g><path style="opacity:0.012" fill="#d46800" d="M 1252.5,423.5 C 1252.83,423.5 1253.17,423.5 1253.5,423.5C 1253.31,424.17 1252.98,424.17 1252.5,423.5 Z"/></g>
<g><path style="opacity:0.004" fill="#25240a" d="M 1250.5,425.5 C 1250.5,425.167 1250.5,424.833 1250.5,424.5C 1251.17,424.5 1251.83,424.5 1252.5,424.5C 1252.16,425.338 1251.49,425.672 1250.5,425.5 Z"/></g>
<g><path style="opacity:0.012" fill="#cb686c" d="M 1249.5,425.5 C 1249.83,425.5 1250.17,425.5 1250.5,425.5C 1250.31,426.17 1249.98,426.17 1249.5,425.5 Z"/></g>
<g><path style="opacity:0.004" fill="#da0001" d="M 1247.5,427.5 C 1247.5,427.167 1247.5,426.833 1247.5,426.5C 1248.17,426.5 1248.83,426.5 1249.5,426.5C 1249.16,427.338 1248.49,427.672 1247.5,427.5 Z"/></g>
<g><path style="opacity:0.012" fill="#646b6c" d="M 1246.5,427.5 C 1246.83,427.5 1247.17,427.5 1247.5,427.5C 1247.31,428.17 1246.98,428.17 1246.5,427.5 Z"/></g>
<g><path style="opacity:0.004" fill="#4a3620" d="M 34.5,428.5 C 35.1667,428.5 35.5,428.833 35.5,429.5C 34.5029,430.713 33.5029,430.546 32.5,429C 33.0944,428.536 33.7611,428.369 34.5,428.5 Z"/></g>
<g><path style="opacity:0.004" fill="#442524" d="M 1244.5,429.5 C 1244.5,429.167 1244.5,428.833 1244.5,428.5C 1245.17,428.5 1245.83,428.5 1246.5,428.5C 1246.16,429.338 1245.49,429.672 1244.5,429.5 Z"/></g>
<g><path style="opacity:0.008" fill="#a3776a" d="M 1242.5,430.5 C 1242.5,430.167 1242.5,429.833 1242.5,429.5C 1243.17,429.5 1243.83,429.5 1244.5,429.5C 1244.16,430.338 1243.49,430.672 1242.5,430.5 Z"/></g>
<g><path style="opacity:0.012" fill="#ce6b6c" d="M 37.5,430.5 C 37.5,430.833 37.5,431.167 37.5,431.5C 36.8299,431.019 36.8299,430.685 37.5,430.5 Z"/></g>
<g><path style="opacity:0.004" fill="#f0c945" d="M 1240.5,431.5 C 1240.5,431.167 1240.5,430.833 1240.5,430.5C 1241.17,430.5 1241.83,430.5 1242.5,430.5C 1242.16,431.338 1241.49,431.672 1240.5,431.5 Z"/></g>
<g><path style="opacity:0.012" fill="#e55a4f" d="M 37.5,431.5 C 38.2389,431.369 38.9056,431.536 39.5,432C 38.5632,432.692 37.8966,432.525 37.5,431.5 Z"/></g>
<g><path style="opacity:0.008" fill="#a09d78" d="M 1238.5,432.5 C 1238.5,432.167 1238.5,431.833 1238.5,431.5C 1239.17,431.5 1239.83,431.5 1240.5,431.5C 1240.16,432.338 1239.49,432.672 1238.5,432.5 Z"/></g>
<g><path style="opacity:0.012" fill="#4e4e4e" d="M 1235.5,433.5 C 1235.5,433.167 1235.5,432.833 1235.5,432.5C 1236.5,432.5 1237.5,432.5 1238.5,432.5C 1237.79,433.404 1236.79,433.737 1235.5,433.5 Z"/></g>
<g><path style="opacity:0.008" fill="#8d8d8d" d="M 1235.5,433.5 C 1235.1,434.525 1234.44,434.692 1233.5,434C 1234.09,433.536 1234.76,433.369 1235.5,433.5 Z"/></g>
<g><path style="opacity:0.004" fill="#000000" d="M 1192.5,433.5 C 1193.24,433.369 1193.91,433.536 1194.5,434C 1193.5,573.763 1193.17,713.597 1193.5,853.5C 1193.17,853.5 1192.83,853.5 1192.5,853.5C 1192.5,713.5 1192.5,573.5 1192.5,433.5 Z"/></g>
<g><path style="opacity:0.012" fill="#cd564d" d="M 1198.5,434.5 C 1198.5,434.833 1198.5,435.167 1198.5,435.5C 1194.5,435.167 1194.5,434.833 1198.5,434.5 Z"/></g>
<g><path style="opacity:0.012" fill="#dc5b54" d="M 1229.5,435.5 C 1229.5,435.167 1229.5,434.833 1229.5,434.5C 1233.5,434.833 1233.5,435.167 1229.5,435.5 Z"/></g>
<g><path style="opacity:0.008" fill="#615453" d="M 53.5,435.5 C 52.0536,436.613 50.3869,436.78 48.5,436C 50.1341,435.506 51.8008,435.34 53.5,435.5 Z"/></g>
<g><path style="opacity:0.012" fill="#e67f50" d="M 1198.5,435.5 C 1199.87,435.343 1201.21,435.51 1202.5,436C 1200.93,436.765 1199.6,436.598 1198.5,435.5 Z"/></g>
<g><path style="opacity:0.012" fill="#d26e4a" d="M 1229.5,435.5 C 1228.4,436.598 1227.07,436.765 1225.5,436C 1226.79,435.51 1228.13,435.343 1229.5,435.5 Z"/></g>
<g><path style="opacity:0.012" fill="#c68159" d="M 1204.5,437.5 C 1210.65,436.347 1216.99,436.18 1223.5,437C 1217.18,437.5 1210.84,437.666 1204.5,437.5 Z"/></g>
<g><path style="opacity:0.007" fill="#0b0605" d="M 72.5,436.5 C 72.5,436.833 72.5,437.167 72.5,437.5C 72.5,576.167 72.5,714.833 72.5,853.5C 72.1667,853.5 71.8333,853.5 71.5,853.5C 71.5,714.833 71.5,576.167 71.5,437.5C 65.8236,437.666 60.1569,437.499 54.5,437C 60.4908,436.501 66.4908,436.334 72.5,436.5 Z"/></g>
<g><path style="opacity:0.998" fill="#8c603b" d="M 1043.5,853.5 C 972.5,853.5 901.5,853.5 830.5,853.5C 830.5,733.833 830.5,614.167 830.5,494.5C 901.5,494.5 972.5,494.5 1043.5,494.5C 1043.5,614.167 1043.5,733.833 1043.5,853.5 Z"/></g>
<g><path style="opacity:1" fill="#8c603b" d="M 168.5,503.5 C 360.833,503.5 553.167,503.5 745.5,503.5C 745.5,587.167 745.5,670.833 745.5,754.5C 553.167,754.5 360.833,754.5 168.5,754.5C 168.5,670.833 168.5,587.167 168.5,503.5 Z"/></g>
<g><path style="opacity:1" fill="#e5e5e5" d="M 841.5,513.5 C 904.833,513.5 968.167,513.5 1031.5,513.5C 1031.5,620.5 1031.5,727.5 1031.5,834.5C 968.595,834.831 905.762,834.498 843,833.5C 842.833,728.666 842.333,623.999 841.5,519.5C 841.5,517.5 841.5,515.5 841.5,513.5 Z"/></g>
<g><path style="opacity:1" fill="#e2dfdd" d="M 841.5,519.5 C 842.333,623.999 842.833,728.666 843,833.5C 905.762,834.498 968.595,834.831 1031.5,834.5C 1031.5,727.5 1031.5,620.5 1031.5,513.5C 968.167,513.5 904.833,513.5 841.5,513.5C 872.993,512.167 904.826,511.5 937,511.5C 969.071,511.502 1001.07,511.835 1033,512.5C 1033.5,620.166 1033.67,727.833 1033.5,835.5C 969.5,835.5 905.5,835.5 841.5,835.5C 841.5,730.167 841.5,624.833 841.5,519.5 Z"/></g>
<g><path style="opacity:1" fill="#41210a" d="M 1000.5,579.5 C 1000.5,599.833 1000.5,620.167 1000.5,640.5C 958.833,640.5 917.167,640.5 875.5,640.5C 875.5,620.167 875.5,599.833 875.5,579.5C 917.167,579.5 958.833,579.5 1000.5,579.5 Z"/></g>
<g><path style="opacity:0.999" fill="#8d613c" d="M 913.5,587.5 C 918.737,587.832 920.07,589.998 917.5,594C 920.203,594.865 921.536,596.699 921.5,599.5C 918.806,612.194 911.14,619.86 898.5,622.5C 892.24,621.568 889.24,617.901 889.5,611.5C 890.978,603.393 895.312,597.226 902.5,593C 906.259,591.121 909.925,589.287 913.5,587.5 Z"/></g>
<g><path style="opacity:1" fill="#41210a" d="M 910.5,597.5 C 912.5,597.5 914.5,597.5 916.5,597.5C 914.767,608.57 908.434,615.57 897.5,618.5C 895.261,618.426 894.261,617.259 894.5,615C 894.909,612.679 895.743,610.513 897,608.5C 901.368,604.629 905.868,600.962 910.5,597.5 Z"/></g>
<g><path style="opacity:0.997" fill="#8a5e3a" d="M 932.5,597.5 C 933.833,597.5 935.167,597.5 936.5,597.5C 935.188,601.004 933.188,604.17 930.5,607C 932.983,606.12 935.649,605.287 938.5,604.5C 941.082,604.747 941.915,606.08 941,608.5C 939.439,611.783 937.273,614.617 934.5,617C 936.92,616.975 939.253,616.309 941.5,615C 943.833,612 946.167,609 948.5,606C 952.208,603.868 956.208,603.035 960.5,603.5C 960.628,605.655 960.128,607.655 959,609.5C 955.353,611.486 951.853,613.653 948.5,616C 948.734,617.732 949.734,618.566 951.5,618.5C 957.837,616.001 962.837,611.835 966.5,606C 968.259,605.202 969.926,605.369 971.5,606.5C 970.07,609.433 968.07,611.933 965.5,614C 968.945,612.593 971.945,610.259 974.5,607C 976.818,605.007 979.484,603.841 982.5,603.5C 982.66,605.199 982.494,606.866 982,608.5C 979.684,610.47 977.851,612.804 976.5,615.5C 979.56,616.402 982.06,615.402 984,612.5C 984.167,613 984.333,613.5 984.5,614C 981.597,619.861 977.097,622.361 971,621.5C 970.838,618.211 971.504,615.211 973,612.5C 970.147,615.052 967.647,617.885 965.5,621C 964.833,621.167 964.167,621.333 963.5,621.5C 961.728,620.64 960.395,619.307 959.5,617.5C 955.65,621.594 950.983,623.094 945.5,622C 944.406,620.22 943.406,618.386 942.5,616.5C 940.641,618.192 938.641,619.692 936.5,621C 931.833,621.333 927.167,621.667 922.5,622C 920.774,625.967 918.44,629.467 915.5,632.5C 914.359,630.579 914.192,628.579 915,626.5C 917.969,621.366 921.136,616.366 924.5,611.5C 924.333,611.167 924.167,610.833 924,610.5C 922,612.5 920,614.5 918,616.5C 917.333,615.5 917.333,614.5 918,613.5C 923.41,608.595 928.243,603.262 932.5,597.5 Z"/></g>
<g><path style="opacity:1" fill="#2e0b00" d="M 874.5,578.5 C 916.67,578.168 958.67,578.501 1000.5,579.5C 958.833,579.5 917.167,579.5 875.5,579.5C 875.5,599.833 875.5,620.167 875.5,640.5C 917.167,640.5 958.833,640.5 1000.5,640.5C 1000.5,640.833 1000.5,641.167 1000.5,641.5C 958.5,641.5 916.5,641.5 874.5,641.5C 874.5,620.5 874.5,599.5 874.5,578.5 Z"/></g>
<g><path style="opacity:0.902" fill="#907e72" d="M 874.5,578.5 C 874.5,599.5 874.5,620.5 874.5,641.5C 916.5,641.5 958.5,641.5 1000.5,641.5C 958.337,642.499 916.003,642.832 873.5,642.5C 873.169,620.993 873.503,599.66 874.5,578.5 Z"/></g>
<g><path style="opacity:1" fill="#40200c" d="M 1004.5,661.5 C 1016.65,660.151 1022.48,665.484 1022,677.5C 1017.44,686.68 1010.6,688.847 1001.5,684C 994.186,675.384 995.186,667.884 1004.5,661.5 Z"/></g>
<g><path style="opacity:0.965" fill="#d3cac3" d="M 191.5,513.5 C 191.5,590.167 191.5,666.833 191.5,743.5C 368.5,743.5 545.5,743.5 722.5,743.5C 722.5,666.833 722.5,590.167 722.5,513.5C 723.499,590.332 723.833,667.332 723.5,744.5C 545.833,744.5 368.167,744.5 190.5,744.5C 190.167,667.332 190.501,590.332 191.5,513.5 Z"/></g>
<g><path style="opacity:0.925" fill="#eff3f7" d="M 191.5,513.5 C 368.5,513.5 545.5,513.5 722.5,513.5C 722.5,590.167 722.5,666.833 722.5,743.5C 545.5,743.5 368.5,743.5 191.5,743.5C 191.5,666.833 191.5,590.167 191.5,513.5 Z"/></g>
<g><path style="opacity:1" fill="#e6e6e6" d="M 192.5,514.5 C 368.833,514.5 545.167,514.5 721.5,514.5C 721.5,590.5 721.5,666.5 721.5,742.5C 545.167,742.5 368.833,742.5 192.5,742.5C 192.5,666.5 192.5,590.5 192.5,514.5 Z"/></g>
<g><path style="opacity:1" fill="#41210c" d="M 533.5,720.5 C 532.18,728.612 527.513,733.779 519.5,736C 515.205,736.912 510.872,737.579 506.5,738C 465.833,738.667 425.167,738.667 384.5,738C 373.32,737.762 365.653,732.596 361.5,722.5C 418.618,720.51 475.951,719.844 533.5,720.5 Z"/></g>
<g><path style="opacity:1" fill="#2c0800" d="M 533.5,719.5 C 533.5,719.833 533.5,720.167 533.5,720.5C 475.951,719.844 418.618,720.51 361.5,722.5C 361.5,722.167 361.5,721.833 361.5,721.5C 418.49,719.504 475.824,718.837 533.5,719.5 Z"/></g>
<g><path style="opacity:0.941" fill="#786353" d="M 533.5,719.5 C 475.824,718.837 418.49,719.504 361.5,721.5C 360.596,720.791 360.263,719.791 360.5,718.5C 418.336,718.168 476.002,718.501 533.5,719.5 Z"/></g>
<g><path style="opacity:1" fill="#40200a" d="M 411.5,612.5 C 442.546,611.926 473.546,612.759 504.5,615C 513.814,617.408 521.648,622.242 528,629.5C 536.896,647.807 532.063,661.307 513.5,670C 508.392,671.614 503.225,672.78 498,673.5C 496.408,686.472 495.242,699.472 494.5,712.5C 464.5,712.5 434.5,712.5 404.5,712.5C 404.664,709.813 404.497,707.146 404,704.5C 395.172,677.546 391.172,649.879 392,621.5C 392.303,619.112 393.137,616.945 394.5,615C 400.384,614.685 406.051,613.851 411.5,612.5 Z"/></g>
<g><path style="opacity:1" fill="#e5e5e4" d="M 503.5,625.5 C 514.562,627.067 521.229,633.234 523.5,644C 522.428,653.741 517.094,659.741 507.5,662C 504.832,662.567 502.166,663.067 499.5,663.5C 500.368,650.765 501.701,638.098 503.5,625.5 Z"/></g>
<g><path style="opacity:1" fill="#40200d" d="M 473.5,521.5 C 476.976,520.357 480.642,520.19 484.5,521C 493.724,532.765 494.891,545.265 488,558.5C 484.633,562.203 480.966,565.536 477,568.5C 471.309,580.245 473.475,590.412 483.5,599C 479.833,599.667 476.167,599.667 472.5,599C 464.158,588.57 462.324,577.07 467,564.5C 470.667,559.5 475,555.167 480,551.5C 486.25,539.596 484.083,529.596 473.5,521.5 Z"/></g>
<g><path style="opacity:1" fill="#41210d" d="M 436.5,521.5 C 439.64,520.359 442.973,520.192 446.5,521C 455.696,530.756 457.862,541.922 453,554.5C 448.7,559.801 444.034,564.801 439,569.5C 434.056,580.922 436.222,590.756 445.5,599C 439.013,601.067 434.18,599.234 431,593.5C 425.456,583.65 425.123,573.65 430,563.5C 434.248,559.184 438.581,554.85 443,550.5C 447.981,539.09 445.814,529.423 436.5,521.5 Z"/></g>
<g><path style="opacity:1" fill="#40210d" d="M 404.5,521.5 C 407.64,520.359 410.973,520.192 414.5,521C 423.41,530.816 425.577,541.982 421,554.5C 415.667,560.5 410.333,566.5 405,572.5C 402.437,583.144 405.271,591.977 413.5,599C 407.013,601.067 402.18,599.234 399,593.5C 393.525,583.633 393.192,573.633 398,563.5C 402.248,559.184 406.581,554.85 411,550.5C 415.981,539.09 413.814,529.423 404.5,521.5 Z"/></g>
</svg>
